# xmcd
# 
# Track frame offsets:
#     150
#     17860
#     34092
#     52740
#     70512
#     87987
#     106972
#     126012
#     140245
#     154810
#     173327
#     187815
# 
# Disc length: 2740
# 
# Revision: 12
# Processed by: cddbd v1.5.2PL0 Copyright (c) Steve Scherf et al.
# Submitted via: BonkEnc v1.0.8
# 
DISCID=910ab20c
DTITLE=Lonestar - I'm Already There
DYEAR=2001
DGENRE=Country
TTITLE0=Out Go The Lights
TTITLE1=Unusually Unusual
TTITLE2=Not A Day Goes By
TTITLE3=I Want To Be The One
TTITLE4=With Me
TTITLE5=Without You
TTITLE6=I'm Already There
TTITLE7=Let's Bring It Back
TTITLE8=Must Be Love
TTITLE9=Softly
TTITLE10=Every Little Thing She Does
TTITLE11=Like A Good Cowboy
EXTD=
EXTT0=
EXTT1=
EXTT2=
EXTT3=
EXTT4=
EXTT5=
EXTT6=
EXTT7=
EXTT8=
EXTT9=
EXTT10=
EXTT11=
PLAYORDER=
